<?xml version="1.0" encoding="UTF-8" standalone="no"?>
<!-- Created with Inkscape (http://www.inkscape.org/) -->

<svg
   width="47.428055mm"
   height="63.779388mm"
   viewBox="0 0 47.428055 63.779388"
   version="1.1"
   id="svg5"
   xml:space="preserve"
   inkscape:version="1.2.2 (732a01da63, 2022-12-09)"
   sodipodi:docname="photoman.svg"
   inkscape:export-filename="Github\Oxygen\photo-man\src\photoman.png"
   inkscape:export-xdpi="96"
   inkscape:export-ydpi="96"
   xmlns:inkscape="http://www.inkscape.org/namespaces/inkscape"
   xmlns:sodipodi="http://sodipodi.sourceforge.net/DTD/sodipodi-0.dtd"
   xmlns="http://www.w3.org/2000/svg"
   xmlns:svg="http://www.w3.org/2000/svg"><sodipodi:namedview
     id="namedview7"
     pagecolor="#ffffff"
     bordercolor="#000000"
     borderopacity="0.25"
     inkscape:showpageshadow="2"
     inkscape:pageopacity="0.0"
     inkscape:pagecheckerboard="0"
     inkscape:deskcolor="#d1d1d1"
     inkscape:document-units="mm"
     showgrid="false"
     inkscape:zoom="0.89045296"
     inkscape:cx="33.690718"
     inkscape:cy="563.75802"
     inkscape:window-width="2560"
     inkscape:window-height="1387"
     inkscape:window-x="-8"
     inkscape:window-y="22"
     inkscape:window-maximized="1"
     inkscape:current-layer="g5785" /><defs
     id="defs2"><rect
       x="480.37723"
       y="769.20471"
       width="130.61452"
       height="42.900581"
       id="rect1149" /></defs><g
     inkscape:label="Warstwa 1"
     inkscape:groupmode="layer"
     id="layer1"
     transform="translate(-116.77025,-141.46827)"><g
       id="g5785"
       transform="matrix(1.0778234,0,0,0.95681886,-36.091526,26.365025)"><g
         id="g1620"
         inkscape:export-filename="photoMan.svg"
         inkscape:export-xdpi="96"
         inkscape:export-ydpi="96"><path
           style="fill:none;fill-opacity:1;stroke:#000000;stroke-width:0.26054"
           d="m 156.08947,176.24044 c 0.92372,0.83378 2.34632,1.51489 3.53835,1.64345 0.47957,-1.53517 1.0968,-4.13815 1.05647,-6.06375 -1.35687,0.14156 -2.36277,-0.50762 -3.37066,-1.1523 -0.19546,2.31342 -0.94072,4.44846 -1.22416,5.5726 z"
           id="path11786"
           sodipodi:nodetypes="ccccc" /><path
           style="fill:none;fill-opacity:1;stroke:#000000;stroke-width:0.26054"
           d="m 166.57711,177.45757 c 1.49696,-0.37275 2.75684,-1.01257 3.80666,-1.88902 -0.58546,-1.85601 -1.12917,-3.74024 -1.27448,-5.89374 -1.1515,0.94761 -2.303,1.46781 -3.4545,1.81345 0.15014,2.02521 0.33277,4.0431 0.92232,5.96931 z"
           id="path11788"
           sodipodi:nodetypes="ccccc" /><path
           style="fill:none;fill-opacity:1;stroke:#000000;stroke-width:0.26054"
           d="m 165.65479,171.48826 0.0862,1.08954 c 0.19805,0.23235 0.39611,0.46469 0.59416,0.69704 l 2.70357,-1.33574 c 0.0681,-0.33072 0.13615,-0.66143 0.20422,-0.99215 l -0.13362,-1.27214"
           id="path16941"
           sodipodi:nodetypes="cccccc" /><path
           style="fill:none;fill-opacity:1;stroke:#000000;stroke-width:0.26054"
           d="m 157.31363,170.66784 -0.15476,1.2373 0.35406,0.94226 2.46642,0.74801 0.66468,-0.64609 0.0403,-1.12918"
           id="path16943" /><path
           style="fill:none;fill-opacity:1;stroke:#000000;stroke-width:0.26095;stroke-dasharray:none"
           d="m 158.64592,121.74523 -3.13397,8.01303 6.26137,-4.61277 1.20918,8.35293 3.78115,-2.78558 1.45427,10.04598 1.68252,0.83501 4.67166,-11.94463 z"
           id="path5426" /><path
           style="fill:none;fill-opacity:1;stroke:#000000;stroke-width:0.26095;stroke-dasharray:none"
           d="m 155.51195,129.75826 -1.53769,3.9316 14.24366,7.06896"
           id="path5482" /><ellipse
           style="fill:none;fill-opacity:1;stroke:#000000;stroke-width:0.261455;stroke-dasharray:none"
           id="path3186"
           cx="207.39226"
           cy="41.606365"
           rx="1.578473"
           ry="1.713382"
           transform="matrix(0.89575314,0.44455181,-0.36424193,0.93130436,0,0)" /><path
           style="fill:none;fill-opacity:1;stroke:#000000;stroke-width:0.260539"
           d="m 152.23451,142.36603 3.08302,13.9451 c 0.45521,7.47634 0.0604,14.63102 -2.0633,21.13138 2.38642,2.0185 5.24578,2.9553 8.27673,3.49963 0.82253,-2.81357 1.35359,-5.8279 1.61266,-9.02959 0.39013,2.96899 0.79596,5.93745 1.49408,8.89602 3.00827,-0.65761 6.09268,-1.15397 8.44274,-3.20577 -2.41076,-8.47719 -3.22352,-15.71012 -2.08697,-21.42524 l 3.1305,-14.07868"
           id="path19145"
           sodipodi:nodetypes="ccccccccc" /><path
           style="fill:none;fill-opacity:1;stroke:#000000;stroke-width:0.260539"
           d="m 163.11509,162.15928 0.0285,9.75327"
           id="path19159" /><path
           style="fill:none;stroke:#000000;stroke-width:0.26054"
           d="m 155.21997,167.60894 -3.36293,-8.92955 0.37747,-16.31336 5.43929,-1.6941 0.91648,-2.71384 0.74408,-0.61202 -6.40418,-3.17832 5.35428,-13.68998 17.47712,8.67369 -4.73929,12.11756 3.10168,0.82986 0.76099,14.49897 -4.18857,9.15342"
           id="path381" /><path
           style="fill:none;stroke:#000000;stroke-width:0.26054"
           d="m 157.6738,140.67193 0.44128,1.7426 1.83059,1.74241 3.08349,-2.57881 -4.43888,-3.62005"
           id="path383" /><path
           style="fill:none;stroke:#000000;stroke-width:0.26054"
           d="m 158.11508,142.41453 5.00001,19.74475 -7.37857,-16.7556 1.12354,-1.49233 -1.24093,-0.3589 0.6459,-2.44175"
           id="path385" /><path
           style="fill:none;stroke:#000000;stroke-width:0.26054"
           d="m 164.81412,140.06561 -1.78496,1.51252 2.94874,2.60251 2.12753,-2.45329"
           id="path387"
           sodipodi:nodetypes="cccc" /><path
           style="fill:none;stroke:#000000;stroke-width:0.26054"
           d="m 159.33436,137.34607 11.06125,5.52526 0.62668,-1.60231"
           id="path389"
           sodipodi:nodetypes="ccc" /><path
           style="fill:none;stroke:#000000;stroke-width:0.26054"
           d="m 170.39561,142.87133 0.13665,0.71101 -1.29123,0.28334 1.19062,1.19008 -7.32825,17.13341 5.00203,-20.46182"
           id="path487"
           sodipodi:nodetypes="cccccc" /><path
           style="fill:none;stroke:#000000;stroke-width:0.26054"
           d="m 161.48742,142.86754 0.95922,1.20545 -0.69238,12.71245"
           id="path489"
           sodipodi:nodetypes="ccc" /><path
           style="fill:none;stroke:#000000;stroke-width:0.26054"
           d="m 164.50353,142.87939 -0.91424,1.26302 0.7335,13.05862"
           id="path491"
           sodipodi:nodetypes="ccc" /><ellipse
           style="fill:none;fill-opacity:1;stroke:#000000;stroke-width:0.26054"
           id="ellipse493"
           cx="164.56526"
           cy="165.17528"
           rx="0.33538869"
           ry="0.37780377" /><ellipse
           style="fill:none;fill-opacity:1;stroke:#000000;stroke-width:0.26054"
           id="ellipse495"
           cx="164.56526"
           cy="168.38104"
           rx="0.33538869"
           ry="0.37780377" /><path
           style="fill:none;stroke:#000000;stroke-width:0.26054"
           d="m 159.33436,137.34607 0.0523,1.26147"
           id="path497"
           sodipodi:nodetypes="cc" /><text
           xml:space="preserve"
           transform="matrix(0.77766788,0,0,0.87601599,-232.30512,-496.27284)"
           id="text1147"
           style="font-style:normal;font-variant:normal;font-weight:bold;font-stretch:normal;font-size:12px;font-family:'Courier New';-inkscape-font-specification:'Courier New, Bold';font-variant-ligatures:normal;font-variant-caps:normal;font-variant-numeric:normal;font-variant-east-asian:normal;white-space:pre;shape-inside:url(#rect1149);display:inline;fill:#000000;fill-opacity:1;stroke:none;stroke-width:1.00157;stroke-dasharray:none"><tspan
             x="480.37695"
             y="779.72769"
             id="tspan247">PhotoMan</tspan></text></g></g></g></svg>
